<svg xmlns="http://www.w3.org/2000/svg" viewBox="0 0 32 32">
  <defs>
    <linearGradient id="grad2" x1="0%" y1="0%" x2="100%" y2="100%">
      <stop offset="0%" style="stop-color:#06b6d4"/>
      <stop offset="100%" style="stop-color:#3b82f6"/>
    </linearGradient>
  </defs>
  
  <!-- 背景（円形） -->
  <circle cx="16" cy="16" r="15" fill="url(#grad2)"/>
  
  <!-- BB モノグラム - オーバーラップスタイル -->
  <g fill="white">
    <!-- 最初のB -->
    <path d="M8 8h5c2.5 0 4 1.5 4 3.5s-1 3-2.5 3.5c1.8.3 3 1.8 3 3.5 0 2.2-1.8 4-4.5 4H8V8zm3 5.5h1.5c1 0 1.5-.5 1.5-1.5s-.5-1.5-1.5-1.5H11v3zm0 6h2c1.2 0 2-.7 2-1.8s-.8-1.7-2-1.7h-2v3.5z" opacity="0.6"/>
    <!-- 2番目のB（少しずらす） -->
    <path d="M12 8h5c2.5 0 4 1.5 4 3.5s-1 3-2.5 3.5c1.8.3 3 1.8 3 3.5 0 2.2-1.8 4-4.5 4H12V8zm3 5.5h1.5c1 0 1.5-.5 1.5-1.5s-.5-1.5-1.5-1.5H15v3zm0 6h2c1.2 0 2-.7 2-1.8s-.8-1.7-2-1.7h-2v3.5z"/>
  </g>
</svg>

